<svg xmlns="http://www.w3.org/2000/svg" width="247.256" height="247.124" viewBox="0 0 247.256 247.124"><g transform="translate(-898.372 -160)"><path d="M649.533,793.3a123.562,123.562,0,1,0,0,247.124,124.888,124.888,0,0,0,30.071-3.781c.221-.042.434-.1.65-.158.151-.036.3-.07.452-.109l.005-.008a12.136,12.136,0,0,0,8.67-11.426l.039-.052V967.222a11.194,11.194,0,0,1,11.2-11.189l57-.039c.044,0,.091.008.135.008s.091-.005.138-.008h.265l.013-.01a12.141,12.141,0,0,0,11.312-9.006l.021-.016c.044-.192.088-.392.138-.587a.857.857,0,0,1,.018-.088,125.861,125.861,0,0,0,3.51-29.424A123.6,123.6,0,0,0,649.533,793.3Zm76.91,135.664-.01.021H582.995a67.63,67.63,0,0,0,66.013,55.474c.177-.008.348-.026.525-.026a12.142,12.142,0,1,1,0,24.285,91.856,91.856,0,1,1,0-183.711c45.7,0,83.834,35.8,90.963,79.733h.146l-.12.205c.395,2.444.709,4.908.907,7.4l-.049.3c.018.319.06.631.06.958A15.379,15.379,0,0,1,726.443,928.967Z" transform="translate(372.466 -633.303)" fill="#fff"/><path d="M649.533,849.255a67.638,67.638,0,0,0-66.538,55.487H716.071A67.636,67.636,0,0,0,649.533,849.255Z" transform="translate(372.466 -633.303)" fill="#fff"/></g></svg>